<?xml version="1.0" encoding="utf-8"?>
<!-- Generator: Adobe Illustrator 24.1.3, SVG Export Plug-In . SVG Version: 6.00 Build 0)  -->
<svg version="1.1" xmlns="http://www.w3.org/2000/svg" xmlns:xlink="http://www.w3.org/1999/xlink" x="0px" y="0px"
	 viewBox="0 0 276.5 143.9" style="enable-background:new 0 0 276.5 143.9;" xml:space="preserve">
<style type="text/css">
	.st0{fill:#4FD087;}
</style>
<g id="Layer_1">
	<polygon class="st0" points="0,0.9 62.6,63.5 62.6,0.9 	"/>
	<path d="M99.2,0.9l39.2,56.1V0.9h2.1c1,0,1.8,0.8,1.8,1.9v60.7h-4.2L99,7.4v56.1H95V0.9H99.2z"/>
	<path d="M159,0.9v62.6H155V0.9H159z"/>
	<path d="M199.6,64.4c-18.1,0-31.2-13.9-31.2-32.5c0-18.1,13.1-31.9,31.2-31.9c11.4,0,21.5,5.5,25.6,14l-3.5,1.8
		C218,8.6,209.4,3.8,199.6,3.8c-16,0-27.2,12.1-27.2,28.2c0,16.4,11.2,28.7,27.2,28.7c10.2,0,19.3-5.3,22.9-13.5l3.5,1.5
		C222.2,58.1,211.8,64.4,199.6,64.4z"/>
	<path class="st0" d="M147.5,111.5c0,18.1-13.6,31.6-31.4,31.6H95.2V80.5h20.9C133.9,80.5,147.5,93.6,147.5,111.5z M135.8,111.5
		c0-11.7-8-20.1-19-20.1h-10.2v40.8h10.2C127.8,132.1,135.8,123.4,135.8,111.5z"/>
	<path class="st0" d="M194.7,99.2V143h-10.8v-5.6c-2.2,3.8-7.9,6.5-13.6,6.5c-11.7,0-20.7-10.1-20.7-22.8s9-22.8,20.7-22.8
		c4.9,0,10.5,2,13.6,6.3v-1.5c0-2.2,1.6-3.9,3.8-3.9H194.7z M183.9,127.5v-12.6c-2-3.6-6.4-6.3-11.3-6.3c-7.1,0-12.4,5.4-12.4,12.5
		s5.4,12.5,12.4,12.5C177.4,133.7,181.9,131,183.9,127.5z"/>
	<path class="st0" d="M229.5,142.6c-1.4,0.7-3.7,1.1-5.7,1.1c-9.8,0-16.8-6.3-16.8-17.3v-16.8h-8.2V99.2h8.2V87.6h10.9v11.6H229v6.4
		c0,2.2-1.7,3.9-3.9,3.9h-7.2V126c0,4.6,3.3,7.6,7.5,7.6c1.1,0,2.7-0.3,3.6-0.5L229.5,142.6z"/>
	<path class="st0" d="M276.5,99.2V143h-10.8v-5.6c-2.2,3.8-7.9,6.5-13.6,6.5c-11.7,0-20.7-10.1-20.7-22.8s9-22.8,20.7-22.8
		c4.9,0,10.5,2,13.6,6.3v-1.5c0-2.2,1.6-3.9,3.8-3.9H276.5z M265.7,127.5v-12.6c-2-3.6-6.4-6.3-11.3-6.3c-7.1,0-12.4,5.4-12.4,12.5
		s5.4,12.5,12.4,12.5C259.2,133.7,263.7,131,265.7,127.5z"/>
</g>
<g id="Layer_2">
</g>
<g id="Layer_3">
</g>
</svg>
